<svg xmlns="http://www.w3.org/2000/svg" xmlns:xlink="http://www.w3.org/1999/xlink" width="69" height="69" viewBox="0 0 69 69">
  <defs>
    <filter id="Ellipse_31" x="0" y="0" width="69" height="69" filterUnits="userSpaceOnUse">
      <feOffset dy="5" input="SourceAlpha"/>
      <feGaussianBlur stdDeviation="2.5" result="blur"/>
      <feFlood flood-opacity="0.051"/>
      <feComposite operator="in" in2="blur"/>
      <feComposite in="SourceGraphic"/>
    </filter>
  </defs>
  <g id="Group_243" data-name="Group 243" transform="translate(-1482.5 1486.5)">
    <g transform="matrix(1, 0, 0, 1, 1482.5, -1486.5)" filter="url(#Ellipse_31)">
      <g id="Ellipse_31-2" data-name="Ellipse 31" transform="translate(7.5 2.5)" fill="#fff" stroke="rgba(112,112,112,0.2)" stroke-width="1">
        <circle cx="27" cy="27" r="27" stroke="none"/>
        <circle cx="27" cy="27" r="26.5" fill="none"/>
      </g>
    </g>
    <path id="Path_2164" data-name="Path 2164" d="M327,248.689a7.546,7.546,0,0,1-2.519.769,5.155,5.155,0,0,0,1.892-2.655,7.026,7.026,0,0,1-2.832,1.08l0,0a4.382,4.382,0,0,0-3.282-1.511,4.723,4.723,0,0,0-4.539,4.888,5.206,5.206,0,0,0,.117,1.089h0a12.764,12.764,0,0,1-9.614-5.071,5.12,5.12,0,0,0,1.376,6.458,2.764,2.764,0,0,1-1.981-.551,4.672,4.672,0,0,0,3.5,4.775,3.312,3.312,0,0,1-1.889.153,4.368,4.368,0,0,0,4.056,3.319A7.113,7.113,0,0,1,305,263.463a12.905,12.905,0,0,0,7.1,2.162c7.322,0,13.009-6.39,12.7-14.274,0-.009,0-.018,0-.027s0-.042,0-.061,0-.049,0-.074A8.182,8.182,0,0,0,327,248.689Z" transform="translate(1201 -1713.375)" fill="#225b00"/>
  </g>
</svg>
